<svg width="126" height="126" viewBox="0 0 126 126" fill="none" xmlns="http://www.w3.org/2000/svg">
<path fill-rule="evenodd" clip-rule="evenodd" d="M35.6053 22.8359C44.8785 18.983 54.8174 17 64.8545 17V32.3334C56.8248 32.3334 48.8737 33.9198 41.4552 37.0021C34.0367 40.0844 27.2961 44.6022 21.6182 50.2975L10.8091 39.4552C17.9064 32.336 26.3322 26.6888 35.6053 22.8359Z" fill="#0E0C0D"/>
<path fill-rule="evenodd" clip-rule="evenodd" d="M47.305 51.1682C52.8689 48.8565 58.8322 47.6666 64.8545 47.6666V93.6666L64.8544 93.6665V63C60.8396 63 56.864 63.7932 53.1548 65.3344C49.4455 66.8755 46.0752 69.1344 43.2363 71.982L32.4272 61.1397C36.6857 56.8682 41.7411 53.4799 47.305 51.1682Z" fill="#0E0C0D"/>
<path d="M54.0454 82.8244C56.1832 80.68 58.907 79.2196 61.8723 78.628C64.8375 78.0364 67.9111 78.34 70.7043 79.5006C73.4975 80.6611 75.8849 82.6264 77.5646 85.148C79.2443 87.6695 80.1408 90.6341 80.1408 93.6667C80.1408 96.6994 79.2443 99.6639 77.5646 102.185C75.8849 104.707 73.4975 106.672 70.7043 107.833C67.9111 108.993 64.8375 109.297 61.8722 108.705C58.907 108.114 56.1832 106.653 54.0454 104.509L64.8545 93.6667L54.0454 82.8244Z" fill="#0E0C0D"/>
<rect width="15.3099" height="76.5493" transform="matrix(-0.706021 0.708191 -0.706021 -0.708191 64.8545 93.6666)" fill="#0E0C0D"/>
<rect x="64.8545" y="17" width="15.2864" height="92" fill="#005E69"/>
<rect x="126" y="93.6666" width="15.3333" height="45.8591" transform="rotate(90 126 93.6666)" fill="#005E69"/>
</svg>
